<svg xmlns="http://www.w3.org/2000/svg" xmlns:xlink="http://www.w3.org/1999/xlink" width="500" zoomAndPan="magnify" viewBox="0 0 375 374.999991" height="500" preserveAspectRatio="xMidYMid meet" version="1.0"><defs><g/><clipPath id="2bcc3db5ee"><path d="M 116.433594 42 L 271.683594 42 L 271.683594 235 L 116.433594 235 Z M 116.433594 42 " clip-rule="nonzero"/></clipPath></defs><g fill="#000000" fill-opacity="1"><g transform="translate(4.78905, 341.039802)"><g><path d="M 4.328125 10.40625 C 4.085938 10.570312 3.820312 10.59375 3.53125 10.46875 C 3.238281 10.34375 3.09375 10.113281 3.09375 9.78125 C 3.007812 9.613281 3.050781 9.203125 3.21875 8.546875 C 3.632812 6.804688 4.957031 4.367188 7.1875 1.234375 C 9.414062 -1.898438 12.160156 -5.40625 15.421875 -9.28125 C 18.679688 -13.164062 21.960938 -17.046875 25.265625 -20.921875 C 27.984375 -24.054688 30.5625 -27.046875 33 -29.890625 C 35.4375 -32.742188 37.4375 -35.242188 39 -37.390625 C 34.21875 -36.984375 28.894531 -36.382812 23.03125 -35.59375 C 17.164062 -34.8125 11.097656 -33.84375 4.828125 -32.6875 L 4.703125 -32.6875 C 4.210938 -32.6875 3.96875 -32.9375 3.96875 -33.4375 C 3.96875 -33.84375 4.171875 -34.046875 4.578125 -34.046875 C 11.097656 -35.203125 17.410156 -36.210938 23.515625 -37.078125 C 29.628906 -37.953125 35.164062 -38.59375 40.125 -39 C 40.695312 -39.75 41.066406 -40.328125 41.234375 -40.734375 C 41.398438 -40.898438 41.609375 -40.984375 41.859375 -40.984375 C 42.347656 -40.984375 42.59375 -40.78125 42.59375 -40.375 C 42.59375 -40.125 42.550781 -40 42.46875 -40 L 42.109375 -39.125 C 44.828125 -39.375 47.21875 -39.539062 49.28125 -39.625 C 51.34375 -39.707031 53.160156 -39.75 54.734375 -39.75 C 59.847656 -39.75 63.332031 -39.4375 65.1875 -38.8125 C 67.050781 -38.195312 67.984375 -36.941406 67.984375 -35.046875 C 67.984375 -34.546875 67.734375 -34.296875 67.234375 -34.296875 C 66.742188 -34.296875 66.5 -34.546875 66.5 -35.046875 C 66.5 -36.367188 65.734375 -37.253906 64.203125 -37.703125 C 62.679688 -38.160156 59.523438 -38.390625 54.734375 -38.390625 C 51.179688 -38.390625 46.554688 -38.140625 40.859375 -37.640625 C 39.296875 -35.410156 37.210938 -32.75 34.609375 -29.65625 C 32.003906 -26.5625 29.257812 -23.320312 26.375 -19.9375 C 23.40625 -16.46875 20.453125 -13 17.515625 -9.53125 C 14.585938 -6.0625 12.03125 -2.863281 9.84375 0.0625 C 7.65625 2.988281 6.109375 5.40625 5.203125 7.3125 C 5.453125 7.3125 5.492188 7.554688 5.328125 8.046875 C 5.242188 8.546875 5.117188 9.019531 4.953125 9.46875 C 4.785156 9.925781 4.578125 10.238281 4.328125 10.40625 Z M 4.328125 10.40625 "/></g></g></g><g fill="#000000" fill-opacity="1"><g transform="translate(37.849693, 341.039802)"><g><path d="M 14.609375 0 C 11.640625 0 10.15625 -1.238281 10.15625 -3.71875 C 10.15625 -4.457031 10.316406 -5.21875 10.640625 -6 C 10.972656 -6.789062 11.390625 -7.597656 11.890625 -8.421875 C 12.296875 -9.078125 12.5 -9.445312 12.5 -9.53125 C 12.5 -9.613281 12.128906 -9.367188 11.390625 -8.796875 C 8.085938 -6.066406 5.46875 -4.082031 3.53125 -2.84375 C 1.59375 -1.601562 0.128906 -0.984375 -0.859375 -0.984375 C -2.097656 -0.984375 -2.71875 -1.601562 -2.71875 -2.84375 C -2.71875 -5.070312 -0.328125 -8.332031 4.453125 -12.625 C 4.617188 -12.789062 4.785156 -12.875 4.953125 -12.875 C 5.453125 -12.875 5.703125 -12.628906 5.703125 -12.140625 C 5.703125 -11.972656 5.617188 -11.804688 5.453125 -11.640625 C 0.992188 -7.679688 -1.234375 -4.789062 -1.234375 -2.96875 C -1.234375 -2.5625 -1.109375 -2.359375 -0.859375 -2.359375 C 0.453125 -2.359375 4.25 -4.875 10.53125 -9.90625 C 14.320312 -12.957031 16.425781 -14.484375 16.84375 -14.484375 C 17.75 -14.484375 18.015625 -14.148438 17.640625 -13.484375 C 17.273438 -12.828125 16.757812 -12.085938 16.09375 -11.265625 C 15.1875 -10.191406 14.195312 -8.953125 13.125 -7.546875 C 12.050781 -6.148438 11.515625 -4.875 11.515625 -3.71875 C 11.515625 -2.144531 12.546875 -1.359375 14.609375 -1.359375 C 15.929688 -1.359375 17.890625 -1.832031 20.484375 -2.78125 C 23.085938 -3.726562 25.851562 -4.925781 28.78125 -6.375 C 31.71875 -7.820312 34.257812 -9.285156 36.40625 -10.765625 C 36.488281 -10.847656 36.65625 -10.890625 36.90625 -10.890625 C 37.3125 -10.890625 37.515625 -10.644531 37.515625 -10.15625 C 37.515625 -9.988281 37.429688 -9.820312 37.265625 -9.65625 C 35.203125 -8.175781 32.664062 -6.691406 29.65625 -5.203125 C 26.644531 -3.710938 23.753906 -2.472656 20.984375 -1.484375 C 18.222656 -0.492188 16.097656 0 14.609375 0 Z M 14.609375 0 "/></g></g></g><g fill="#000000" fill-opacity="1"><g transform="translate(71.900917, 341.039802)"><g><path d="M -3.34375 1.984375 C -4 1.984375 -4.328125 1.648438 -4.328125 0.984375 C -4.328125 0.078125 -3.726562 -1.40625 -2.53125 -3.46875 C -1.34375 -5.53125 0.285156 -7.960938 2.359375 -10.765625 L 2.484375 -10.890625 C 4.785156 -14.035156 7.460938 -17.484375 10.515625 -21.234375 C 13.578125 -24.992188 16.800781 -28.8125 20.1875 -32.6875 C 23.570312 -36.570312 26.957031 -40.328125 30.34375 -43.953125 C 33.726562 -47.585938 36.863281 -50.828125 39.75 -53.671875 C 42.632812 -56.523438 45.148438 -58.773438 47.296875 -60.421875 C 49.441406 -62.078125 50.929688 -62.90625 51.765625 -62.90625 C 53.160156 -62.90625 53.859375 -62.203125 53.859375 -60.796875 C 53.859375 -59.554688 52.953125 -57.550781 51.140625 -54.78125 C 49.328125 -52.019531 46.789062 -48.757812 43.53125 -45 C 40.269531 -41.25 36.507812 -37.289062 32.25 -33.125 C 28 -28.957031 23.394531 -24.867188 18.4375 -20.859375 C 13.488281 -16.859375 8.457031 -13.164062 3.34375 -9.78125 C 2.1875 -8.21875 1.15625 -6.734375 0.25 -5.328125 C -0.65625 -3.921875 -1.398438 -2.722656 -1.984375 -1.734375 C -2.472656 -0.828125 -2.222656 -0.785156 -1.234375 -1.609375 C -0.984375 -1.859375 -0.242188 -2.519531 0.984375 -3.59375 C 2.222656 -4.664062 3.628906 -5.738281 5.203125 -6.8125 C 10.648438 -10.851562 14.40625 -12.875 16.46875 -12.875 C 17.875 -12.875 18.578125 -12.132812 18.578125 -10.65625 C 18.578125 -8.832031 17.707031 -6.929688 15.96875 -4.953125 C 19.101562 -5.367188 22.425781 -5.988281 25.9375 -6.8125 C 29.445312 -7.632812 32.644531 -8.953125 35.53125 -10.765625 L 35.90625 -10.765625 C 36.320312 -10.765625 36.53125 -10.5625 36.53125 -10.15625 C 36.53125 -9.90625 36.445312 -9.695312 36.28125 -9.53125 C 32.976562 -7.46875 29.34375 -6.023438 25.375 -5.203125 C 21.414062 -4.378906 17.785156 -3.757812 14.484375 -3.34375 C 13.242188 -2.1875 11.921875 -1.195312 10.515625 -0.375 C 9.117188 0.445312 7.800781 0.859375 6.5625 0.859375 C 4.832031 0.859375 3.96875 0.117188 3.96875 -1.359375 C 3.96875 -2.265625 4.726562 -2.925781 6.25 -3.34375 C 7.78125 -3.757812 10.070312 -4.171875 13.125 -4.578125 L 13.75 -4.578125 C 14.738281 -5.566406 15.5625 -6.617188 16.21875 -7.734375 C 16.882812 -8.847656 17.21875 -9.820312 17.21875 -10.65625 C 17.21875 -11.144531 16.882812 -11.390625 16.21875 -11.390625 C 14.570312 -11.390625 11.144531 -9.492188 5.9375 -5.703125 C 4.457031 -4.628906 3.078125 -3.515625 1.796875 -2.359375 C 0.515625 -1.203125 -0.535156 -0.25 -1.359375 0.5 C -1.773438 0.820312 -2.144531 1.148438 -2.46875 1.484375 C -2.800781 1.816406 -3.09375 1.984375 -3.34375 1.984375 Z M 5.9375 -13.25 C 10.8125 -16.550781 15.519531 -20.140625 20.0625 -24.015625 C 24.601562 -27.898438 28.832031 -31.757812 32.75 -35.59375 C 36.675781 -39.4375 40.125 -43.070312 43.09375 -46.5 C 46.0625 -49.925781 48.367188 -52.894531 50.015625 -55.40625 C 51.671875 -57.925781 52.5 -59.722656 52.5 -60.796875 C 52.5 -61.210938 52.253906 -61.421875 51.765625 -61.421875 C 50.929688 -61.421875 49.273438 -60.367188 46.796875 -58.265625 C 44.328125 -56.160156 41.378906 -53.351562 37.953125 -49.84375 C 34.523438 -46.332031 30.890625 -42.472656 27.046875 -38.265625 C 23.210938 -34.054688 19.457031 -29.765625 15.78125 -25.390625 C 12.113281 -21.015625 8.832031 -16.96875 5.9375 -13.25 Z M 6.5625 -0.625 C 8.289062 -0.625 10.066406 -1.40625 11.890625 -2.96875 C 9.492188 -2.644531 7.820312 -2.335938 6.875 -2.046875 C 5.925781 -1.753906 5.453125 -1.523438 5.453125 -1.359375 C 5.453125 -0.867188 5.820312 -0.625 6.5625 -0.625 Z M 6.5625 -0.625 "/></g></g></g><g fill="#000000" fill-opacity="1"><g transform="translate(104.96156, 341.039802)"><g><path d="M 8.921875 -15.96875 C 8.421875 -15.96875 8.171875 -16.175781 8.171875 -16.59375 C 8.171875 -16.84375 8.210938 -17.007812 8.296875 -17.09375 L 8.796875 -17.578125 C 8.960938 -17.828125 9.164062 -18.117188 9.40625 -18.453125 C 9.65625 -18.785156 9.820312 -19.03125 9.90625 -19.1875 C 10.070312 -19.351562 10.28125 -19.4375 10.53125 -19.4375 C 10.9375 -19.4375 11.140625 -19.191406 11.140625 -18.703125 C 11.140625 -18.453125 11.097656 -18.285156 11.015625 -18.203125 C 10.691406 -17.867188 10.320312 -17.375 9.90625 -16.71875 L 9.40625 -16.21875 C 9.320312 -16.050781 9.160156 -15.96875 8.921875 -15.96875 Z M 0.984375 0.75 C -1.242188 0.75 -2.359375 -0.328125 -2.359375 -2.484375 C -2.359375 -3.628906 -1.675781 -5.210938 -0.3125 -7.234375 C 1.050781 -9.265625 2.890625 -11.4375 5.203125 -13.75 C 5.285156 -13.832031 5.453125 -13.875 5.703125 -13.875 C 6.191406 -13.875 6.4375 -13.664062 6.4375 -13.25 C 6.4375 -13.082031 6.351562 -12.914062 6.1875 -12.75 C 4.125 -10.601562 2.410156 -8.582031 1.046875 -6.6875 C -0.304688 -4.789062 -0.984375 -3.390625 -0.984375 -2.484375 C -0.984375 -1.328125 -0.328125 -0.75 0.984375 -0.75 C 1.984375 -0.75 3.410156 -1.054688 5.265625 -1.671875 C 7.117188 -2.285156 9.203125 -3.109375 11.515625 -4.140625 C 13.828125 -5.179688 16.097656 -6.273438 18.328125 -7.421875 C 20.554688 -8.578125 22.453125 -9.691406 24.015625 -10.765625 L 24.390625 -10.765625 C 24.890625 -10.765625 25.140625 -10.5625 25.140625 -10.15625 C 25.140625 -9.90625 25.054688 -9.695312 24.890625 -9.53125 C 23.234375 -8.457031 21.269531 -7.320312 19 -6.125 C 16.738281 -4.925781 14.410156 -3.8125 12.015625 -2.78125 C 9.617188 -1.75 7.445312 -0.898438 5.5 -0.234375 C 3.5625 0.421875 2.054688 0.75 0.984375 0.75 Z M 0.984375 0.75 "/></g></g></g><g fill="#000000" fill-opacity="1"><g transform="translate(126.630523, 341.039802)"><g><path d="M 20.5625 -26 C 20.476562 -25.507812 20.207031 -24.953125 19.75 -24.328125 C 19.289062 -23.710938 18.773438 -23.320312 18.203125 -23.15625 C 17.628906 -22.90625 17.34375 -22.65625 17.34375 -22.40625 C 17.34375 -22.25 17.460938 -22.171875 17.703125 -22.171875 C 18.941406 -22.171875 20.054688 -22.726562 21.046875 -23.84375 C 22.035156 -24.957031 22.53125 -25.84375 22.53125 -26.5 C 22.53125 -26.832031 22.285156 -27 21.796875 -27 C 21.128906 -27 20.71875 -26.664062 20.5625 -26 Z M 20.5625 -26 "/></g></g></g><g fill="#000000" fill-opacity="1"><g transform="translate(137.650742, 341.039802)"><g><path d="M -0.5 5.9375 C -1.894531 5.9375 -2.59375 5.398438 -2.59375 4.328125 C -2.59375 3.503906 -1.847656 2.617188 -0.359375 1.671875 C 1.117188 0.722656 2.890625 -0.203125 4.953125 -1.109375 C 7.015625 -2.023438 8.875 -2.769531 10.53125 -3.34375 C 10.6875 -3.34375 10.765625 -3.382812 10.765625 -3.46875 C 10.929688 -3.800781 11.117188 -4.109375 11.328125 -4.390625 C 11.535156 -4.679688 11.554688 -4.910156 11.390625 -5.078125 C 11.304688 -5.242188 10.707031 -5.265625 9.59375 -5.140625 C 8.476562 -5.015625 7.675781 -4.910156 7.1875 -4.828125 C 6.4375 -4.742188 5.710938 -4.640625 5.015625 -4.515625 C 4.316406 -4.390625 3.632812 -4.328125 2.96875 -4.328125 C 0.988281 -4.328125 0 -4.988281 0 -6.3125 C 0 -7.550781 0.660156 -8.875 1.984375 -10.28125 C 3.304688 -11.6875 4.875 -12.90625 6.6875 -13.9375 C 8.5 -14.96875 10.148438 -15.484375 11.640625 -15.484375 C 13.128906 -15.484375 13.875 -14.863281 13.875 -13.625 C 13.875 -13.375 13.832031 -13.207031 13.75 -13.125 C 13.332031 -11.476562 12.460938 -10.28125 11.140625 -9.53125 C 11.054688 -9.445312 10.929688 -9.40625 10.765625 -9.40625 C 10.273438 -9.40625 10.03125 -9.65625 10.03125 -10.15625 C 10.03125 -10.488281 10.15625 -10.691406 10.40625 -10.765625 C 10.8125 -11.015625 11.242188 -11.425781 11.703125 -12 C 12.160156 -12.582031 12.390625 -13.082031 12.390625 -13.5 C 12.390625 -13.90625 12.140625 -14.109375 11.640625 -14.109375 C 10.398438 -14.109375 8.992188 -13.65625 7.421875 -12.75 C 5.859375 -11.84375 4.476562 -10.789062 3.28125 -9.59375 C 2.082031 -8.394531 1.484375 -7.300781 1.484375 -6.3125 C 1.484375 -5.90625 1.976562 -5.703125 2.96875 -5.703125 C 3.550781 -5.703125 4.191406 -5.757812 4.890625 -5.875 C 5.585938 -6 6.269531 -6.101562 6.9375 -6.1875 C 7.59375 -6.351562 8.226562 -6.476562 8.84375 -6.5625 C 9.46875 -6.644531 10.03125 -6.6875 10.53125 -6.6875 C 12.09375 -6.6875 12.875 -6.109375 12.875 -4.953125 C 12.789062 -4.867188 12.75 -4.785156 12.75 -4.703125 C 12.75 -4.617188 12.707031 -4.492188 12.625 -4.328125 C 12.625 -4.003906 12.707031 -3.925781 12.875 -4.09375 C 14.363281 -4.5 15.953125 -4.96875 17.640625 -5.5 C 19.335938 -6.039062 21.050781 -6.5625 22.78125 -7.0625 C 24.925781 -7.71875 27.070312 -8.351562 29.21875 -8.96875 C 31.363281 -9.59375 33.347656 -10.191406 35.171875 -10.765625 L 35.421875 -10.765625 C 35.828125 -10.765625 36.03125 -10.5625 36.03125 -10.15625 C 36.03125 -9.738281 35.863281 -9.488281 35.53125 -9.40625 C 33.71875 -8.832031 31.738281 -8.234375 29.59375 -7.609375 C 27.445312 -6.992188 25.300781 -6.359375 23.15625 -5.703125 C 21.09375 -5.117188 19.085938 -4.515625 17.140625 -3.890625 C 15.203125 -3.273438 13.410156 -2.722656 11.765625 -2.234375 L 11.390625 -1.984375 C 10.148438 -0.160156 8.375 1.613281 6.0625 3.34375 C 3.75 5.070312 1.5625 5.9375 -0.5 5.9375 Z M -0.5 4.453125 C 0.90625 4.453125 2.453125 3.9375 4.140625 2.90625 C 5.835938 1.875 7.304688 0.695312 8.546875 -0.625 C 8.796875 -0.863281 8.710938 -0.984375 8.296875 -0.984375 C 5.734375 0.0859375 3.503906 1.140625 1.609375 2.171875 C -0.285156 3.203125 -1.234375 3.878906 -1.234375 4.203125 C -1.234375 4.367188 -0.988281 4.453125 -0.5 4.453125 Z M -0.5 4.453125 "/></g></g></g><g fill="#000000" fill-opacity="1"><g transform="translate(170.216094, 341.039802)"><g/></g></g><g fill="#000000" fill-opacity="1"><g transform="translate(197.580897, 341.039802)"><g><path d="M 4.578125 3.46875 C 2.265625 3.46875 0.453125 2.640625 -0.859375 0.984375 C -2.179688 -0.660156 -2.640625 -2.679688 -2.234375 -5.078125 C -1.816406 -7.472656 -0.679688 -10.257812 1.171875 -13.4375 C 3.035156 -16.613281 5.390625 -19.851562 8.234375 -23.15625 C 11.078125 -26.457031 14.234375 -29.53125 17.703125 -32.375 C 21.171875 -35.226562 24.738281 -37.519531 28.40625 -39.25 C 32.082031 -40.988281 35.695312 -41.859375 39.25 -41.859375 C 41.726562 -41.859375 43.628906 -41.300781 44.953125 -40.1875 C 46.273438 -39.070312 46.726562 -37.5625 46.3125 -35.65625 C 45.976562 -33.425781 44.941406 -31.175781 43.203125 -28.90625 C 41.472656 -26.644531 39.410156 -24.539062 37.015625 -22.59375 C 34.628906 -20.65625 32.238281 -18.984375 29.84375 -17.578125 C 29.757812 -17.492188 29.632812 -17.453125 29.46875 -17.453125 C 29.0625 -17.453125 28.859375 -17.703125 28.859375 -18.203125 C 28.859375 -18.535156 28.976562 -18.742188 29.21875 -18.828125 C 33.425781 -21.210938 36.972656 -23.972656 39.859375 -27.109375 C 42.753906 -30.253906 44.453125 -33.1875 44.953125 -35.90625 C 45.441406 -38.882812 43.539062 -40.375 39.25 -40.375 C 35.863281 -40.375 32.375 -39.523438 28.78125 -37.828125 C 25.195312 -36.140625 21.734375 -33.929688 18.390625 -31.203125 C 15.046875 -28.484375 12.007812 -25.53125 9.28125 -22.34375 C 6.5625 -19.164062 4.3125 -16.03125 2.53125 -12.9375 C 0.757812 -9.84375 -0.332031 -7.140625 -0.75 -4.828125 C -1.070312 -2.847656 -0.71875 -1.195312 0.3125 0.125 C 1.34375 1.445312 2.765625 2.109375 4.578125 2.109375 C 8.046875 2.109375 11.675781 1.671875 15.46875 0.796875 C 19.269531 -0.0664062 22.945312 -1.175781 26.5 -2.53125 C 30.050781 -3.894531 33.3125 -5.320312 36.28125 -6.8125 C 39.25 -8.300781 41.644531 -9.617188 43.46875 -10.765625 L 43.828125 -10.765625 C 44.328125 -10.765625 44.578125 -10.5625 44.578125 -10.15625 C 44.578125 -9.90625 44.453125 -9.695312 44.203125 -9.53125 C 42.390625 -8.375 39.972656 -7.050781 36.953125 -5.5625 C 33.941406 -4.082031 30.617188 -2.660156 26.984375 -1.296875 C 23.359375 0.0664062 19.625 1.203125 15.78125 2.109375 C 11.945312 3.015625 8.210938 3.46875 4.578125 3.46875 Z M 4.578125 3.46875 "/></g></g></g><g fill="#000000" fill-opacity="1"><g transform="translate(238.566187, 341.039802)"><g><path d="M 16.71875 0.125 C 13.75 0.125 12.265625 -1.113281 12.265625 -3.59375 C 12.265625 -4.832031 12.59375 -6.109375 13.25 -7.421875 C 13.90625 -8.742188 14.609375 -9.941406 15.359375 -11.015625 C 15.523438 -11.179688 15.566406 -11.304688 15.484375 -11.390625 C 15.398438 -11.472656 15.273438 -11.429688 15.109375 -11.265625 C 14.523438 -10.929688 13.695312 -10.351562 12.625 -9.53125 C 10.894531 -8.289062 8.976562 -6.945312 6.875 -5.5 C 4.769531 -4.0625 2.765625 -2.804688 0.859375 -1.734375 C -1.035156 -0.660156 -2.5625 -0.125 -3.71875 -0.125 C -5.195312 -0.125 -5.9375 -0.785156 -5.9375 -2.109375 C -5.9375 -3.179688 -5.359375 -4.351562 -4.203125 -5.625 C -3.054688 -6.90625 -1.617188 -8.125 0.109375 -9.28125 C 1.847656 -10.4375 3.5625 -11.382812 5.25 -12.125 C 6.945312 -12.875 8.332031 -13.25 9.40625 -13.25 C 11.0625 -13.25 12.21875 -12.628906 12.875 -11.390625 C 15.519531 -13.367188 17.085938 -14.359375 17.578125 -14.359375 C 18.160156 -14.359375 18.453125 -14.070312 18.453125 -13.5 C 18.453125 -13.164062 18 -12.335938 17.09375 -11.015625 C 16.34375 -9.941406 15.578125 -8.722656 14.796875 -7.359375 C 14.015625 -6.003906 13.625 -4.75 13.625 -3.59375 C 13.625 -2.101562 14.65625 -1.359375 16.71875 -1.359375 C 18.039062 -1.359375 19.976562 -1.769531 22.53125 -2.59375 C 25.09375 -3.425781 27.816406 -4.539062 30.703125 -5.9375 C 33.597656 -7.34375 36.203125 -8.914062 38.515625 -10.65625 C 38.597656 -10.726562 38.757812 -10.765625 39 -10.765625 C 39.414062 -10.765625 39.625 -10.5625 39.625 -10.15625 C 39.625 -9.90625 39.539062 -9.695312 39.375 -9.53125 C 37.0625 -7.882812 34.421875 -6.316406 31.453125 -4.828125 C 28.484375 -3.335938 25.65625 -2.140625 22.96875 -1.234375 C 20.289062 -0.328125 18.207031 0.125 16.71875 0.125 Z M -3.71875 -1.609375 C -2.726562 -1.609375 -1.347656 -2.101562 0.421875 -3.09375 C 2.203125 -4.082031 4.101562 -5.28125 6.125 -6.6875 C 8.144531 -8.09375 9.984375 -9.414062 11.640625 -10.65625 C 11.222656 -11.476562 10.476562 -11.890625 9.40625 -11.890625 C 8.332031 -11.890625 7.007812 -11.535156 5.4375 -10.828125 C 3.875 -10.128906 2.328125 -9.222656 0.796875 -8.109375 C -0.722656 -6.992188 -2 -5.898438 -3.03125 -4.828125 C -4.0625 -3.753906 -4.578125 -2.847656 -4.578125 -2.109375 C -4.578125 -1.773438 -4.289062 -1.609375 -3.71875 -1.609375 Z M -3.71875 -1.609375 "/></g></g></g><g fill="#000000" fill-opacity="1"><g transform="translate(274.72239, 341.039802)"><g><path d="M -13.5 15.359375 C -14.15625 15.359375 -14.484375 15.023438 -14.484375 14.359375 C -14.484375 13.535156 -13.757812 11.925781 -12.3125 9.53125 C -10.875 7.132812 -8.894531 4.179688 -6.375 0.671875 C -3.851562 -2.828125 -0.984375 -6.601562 2.234375 -10.65625 L 2.359375 -10.65625 C 5.898438 -15.1875 9.710938 -19.890625 13.796875 -24.765625 C 17.890625 -29.640625 21.957031 -34.320312 26 -38.8125 C 30.050781 -43.3125 33.847656 -47.378906 37.390625 -51.015625 C 40.941406 -54.648438 44.015625 -57.539062 46.609375 -59.6875 C 49.210938 -61.832031 51.050781 -62.90625 52.125 -62.90625 C 53.53125 -62.90625 54.234375 -62.203125 54.234375 -60.796875 C 54.234375 -59.554688 53.304688 -57.53125 51.453125 -54.71875 C 49.597656 -51.914062 47.035156 -48.632812 43.765625 -44.875 C 40.503906 -41.125 36.707031 -37.164062 32.375 -33 C 28.039062 -28.832031 23.375 -24.703125 18.375 -20.609375 C 13.382812 -16.523438 8.25 -12.789062 2.96875 -9.40625 C 0.414062 -6.101562 -1.953125 -2.988281 -4.140625 -0.0625 C -6.335938 2.863281 -8.175781 5.441406 -9.65625 7.671875 C -10.894531 9.492188 -11.453125 10.460938 -11.328125 10.578125 C -11.203125 10.703125 -10.359375 9.734375 -8.796875 7.671875 C -8.296875 7.097656 -7.488281 6.148438 -6.375 4.828125 C -5.257812 3.503906 -4.0625 2.054688 -2.78125 0.484375 C -1.5 -1.078125 -0.363281 -2.351562 0.625 -3.34375 C 7.96875 -10.6875 13.660156 -14.359375 17.703125 -14.359375 C 18.609375 -14.359375 19.3125 -14.148438 19.8125 -13.734375 C 20.3125 -13.328125 20.476562 -12.796875 20.3125 -12.140625 C 20.144531 -11.148438 18.988281 -9.722656 16.84375 -7.859375 C 14.695312 -6.003906 11.351562 -4.75 6.8125 -4.09375 C 7.0625 -3.019531 7.722656 -1.90625 8.796875 -0.75 C 9.867188 0.40625 11.269531 0.984375 13 0.984375 C 15.144531 0.984375 17.785156 0.367188 20.921875 -0.859375 C 24.054688 -2.097656 27.316406 -3.625 30.703125 -5.4375 C 34.085938 -7.257812 37.1875 -9.035156 40 -10.765625 L 40.375 -10.765625 C 40.863281 -10.765625 41.109375 -10.5625 41.109375 -10.15625 C 41.109375 -9.988281 40.984375 -9.78125 40.734375 -9.53125 C 37.847656 -7.800781 34.691406 -6.003906 31.265625 -4.140625 C 27.835938 -2.285156 24.515625 -0.71875 21.296875 0.5625 C 18.078125 1.84375 15.3125 2.484375 13 2.484375 C 10.851562 2.484375 9.117188 1.675781 7.796875 0.0625 C 6.472656 -1.550781 5.648438 -2.9375 5.328125 -4.09375 C 5.328125 -4.5 5.410156 -4.785156 5.578125 -4.953125 C 5.816406 -5.285156 6.101562 -5.453125 6.4375 -5.453125 C 10.8125 -6.109375 13.945312 -7.21875 15.84375 -8.78125 C 17.75 -10.351562 18.785156 -11.515625 18.953125 -12.265625 C 18.953125 -12.753906 18.535156 -13 17.703125 -13 C 14.078125 -13 8.710938 -9.410156 1.609375 -2.234375 C 0.117188 -0.742188 -1.71875 1.335938 -3.90625 4.015625 C -6.09375 6.703125 -8.007812 9.078125 -9.65625 11.140625 C -10.476562 12.210938 -11.238281 13.179688 -11.9375 14.046875 C -12.644531 14.921875 -13.164062 15.359375 -13.5 15.359375 Z M 5.8125 -13 C 10.769531 -16.382812 15.539062 -20.015625 20.125 -23.890625 C 24.707031 -27.773438 28.976562 -31.65625 32.9375 -35.53125 C 36.894531 -39.414062 40.359375 -43.070312 43.328125 -46.5 C 46.304688 -49.925781 48.617188 -52.894531 50.265625 -55.40625 C 51.921875 -57.925781 52.75 -59.722656 52.75 -60.796875 C 52.75 -61.210938 52.539062 -61.421875 52.125 -61.421875 C 51.132812 -61.421875 49.484375 -60.445312 47.171875 -58.5 C 44.867188 -56.5625 42.082031 -53.941406 38.8125 -50.640625 C 35.550781 -47.335938 32.039062 -43.601562 28.28125 -39.4375 C 24.53125 -35.269531 20.710938 -30.914062 16.828125 -26.375 C 12.953125 -21.832031 9.28125 -17.375 5.8125 -13 Z M 5.8125 -13 "/></g></g></g><g fill="#000000" fill-opacity="1"><g transform="translate(312.240646, 341.039802)"><g><path d="M 4.09375 0.375 C 2.269531 0.375 0.84375 0.046875 -0.1875 -0.609375 C -1.21875 -1.273438 -1.734375 -2.226562 -1.734375 -3.46875 C -1.734375 -4.875 -1.15625 -6.359375 0 -7.921875 C 1.15625 -9.492188 2.535156 -10.859375 4.140625 -12.015625 C 5.753906 -13.171875 7.222656 -13.75 8.546875 -13.75 C 10.023438 -13.75 10.765625 -13.085938 10.765625 -11.765625 C 10.765625 -10.941406 10.207031 -10.15625 9.09375 -9.40625 C 7.988281 -8.664062 6.859375 -8.296875 5.703125 -8.296875 C 4.296875 -8.296875 3.257812 -8.460938 2.59375 -8.796875 C 1.769531 -7.960938 1.085938 -7.070312 0.546875 -6.125 C 0.015625 -5.175781 -0.25 -4.289062 -0.25 -3.46875 C -0.25 -1.894531 1.195312 -1.109375 4.09375 -1.109375 C 5.320312 -1.109375 7.257812 -1.476562 9.90625 -2.21875 C 12.550781 -2.96875 15.503906 -4.039062 18.765625 -5.4375 C 22.023438 -6.84375 25.054688 -8.582031 27.859375 -10.65625 C 27.941406 -10.726562 28.066406 -10.765625 28.234375 -10.765625 C 28.722656 -10.765625 28.96875 -10.5625 28.96875 -10.15625 C 28.96875 -9.90625 28.847656 -9.695312 28.609375 -9.53125 C 25.710938 -7.382812 22.613281 -5.566406 19.3125 -4.078125 C 16.007812 -2.597656 12.972656 -1.484375 10.203125 -0.734375 C 7.441406 0.00390625 5.40625 0.375 4.09375 0.375 Z M 5.703125 -9.65625 C 6.359375 -9.65625 7.140625 -9.921875 8.046875 -10.453125 C 8.953125 -10.992188 9.40625 -11.429688 9.40625 -11.765625 C 9.40625 -12.097656 9.117188 -12.265625 8.546875 -12.265625 C 7.804688 -12.265625 7.019531 -12.035156 6.1875 -11.578125 C 5.363281 -11.117188 4.539062 -10.5625 3.71875 -9.90625 C 3.96875 -9.820312 4.253906 -9.757812 4.578125 -9.71875 C 4.910156 -9.675781 5.285156 -9.65625 5.703125 -9.65625 Z M 5.703125 -9.65625 "/></g></g></g><g fill="#000000" fill-opacity="1"><g transform="translate(337.624276, 341.039802)"><g><path d="M -0.5 5.9375 C -1.894531 5.9375 -2.59375 5.398438 -2.59375 4.328125 C -2.59375 3.503906 -1.847656 2.617188 -0.359375 1.671875 C 1.117188 0.722656 2.890625 -0.203125 4.953125 -1.109375 C 7.015625 -2.023438 8.875 -2.769531 10.53125 -3.34375 C 10.6875 -3.34375 10.765625 -3.382812 10.765625 -3.46875 C 10.929688 -3.800781 11.117188 -4.109375 11.328125 -4.390625 C 11.535156 -4.679688 11.554688 -4.910156 11.390625 -5.078125 C 11.304688 -5.242188 10.707031 -5.265625 9.59375 -5.140625 C 8.476562 -5.015625 7.675781 -4.910156 7.1875 -4.828125 C 6.4375 -4.742188 5.710938 -4.640625 5.015625 -4.515625 C 4.316406 -4.390625 3.632812 -4.328125 2.96875 -4.328125 C 0.988281 -4.328125 0 -4.988281 0 -6.3125 C 0 -7.550781 0.660156 -8.875 1.984375 -10.28125 C 3.304688 -11.6875 4.875 -12.90625 6.6875 -13.9375 C 8.5 -14.96875 10.148438 -15.484375 11.640625 -15.484375 C 13.128906 -15.484375 13.875 -14.863281 13.875 -13.625 C 13.875 -13.375 13.832031 -13.207031 13.75 -13.125 C 13.332031 -11.476562 12.460938 -10.28125 11.140625 -9.53125 C 11.054688 -9.445312 10.929688 -9.40625 10.765625 -9.40625 C 10.273438 -9.40625 10.03125 -9.65625 10.03125 -10.15625 C 10.03125 -10.488281 10.15625 -10.691406 10.40625 -10.765625 C 10.8125 -11.015625 11.242188 -11.425781 11.703125 -12 C 12.160156 -12.582031 12.390625 -13.082031 12.390625 -13.5 C 12.390625 -13.90625 12.140625 -14.109375 11.640625 -14.109375 C 10.398438 -14.109375 8.992188 -13.65625 7.421875 -12.75 C 5.859375 -11.84375 4.476562 -10.789062 3.28125 -9.59375 C 2.082031 -8.394531 1.484375 -7.300781 1.484375 -6.3125 C 1.484375 -5.90625 1.976562 -5.703125 2.96875 -5.703125 C 3.550781 -5.703125 4.191406 -5.757812 4.890625 -5.875 C 5.585938 -6 6.269531 -6.101562 6.9375 -6.1875 C 7.59375 -6.351562 8.226562 -6.476562 8.84375 -6.5625 C 9.46875 -6.644531 10.03125 -6.6875 10.53125 -6.6875 C 12.09375 -6.6875 12.875 -6.109375 12.875 -4.953125 C 12.789062 -4.867188 12.75 -4.785156 12.75 -4.703125 C 12.75 -4.617188 12.707031 -4.492188 12.625 -4.328125 C 12.625 -4.003906 12.707031 -3.925781 12.875 -4.09375 C 14.363281 -4.5 15.953125 -4.96875 17.640625 -5.5 C 19.335938 -6.039062 21.050781 -6.5625 22.78125 -7.0625 C 24.925781 -7.71875 27.070312 -8.351562 29.21875 -8.96875 C 31.363281 -9.59375 33.347656 -10.191406 35.171875 -10.765625 L 35.421875 -10.765625 C 35.828125 -10.765625 36.03125 -10.5625 36.03125 -10.15625 C 36.03125 -9.738281 35.863281 -9.488281 35.53125 -9.40625 C 33.71875 -8.832031 31.738281 -8.234375 29.59375 -7.609375 C 27.445312 -6.992188 25.300781 -6.359375 23.15625 -5.703125 C 21.09375 -5.117188 19.085938 -4.515625 17.140625 -3.890625 C 15.203125 -3.273438 13.410156 -2.722656 11.765625 -2.234375 L 11.390625 -1.984375 C 10.148438 -0.160156 8.375 1.613281 6.0625 3.34375 C 3.75 5.070312 1.5625 5.9375 -0.5 5.9375 Z M -0.5 4.453125 C 0.90625 4.453125 2.453125 3.9375 4.140625 2.90625 C 5.835938 1.875 7.304688 0.695312 8.546875 -0.625 C 8.796875 -0.863281 8.710938 -0.984375 8.296875 -0.984375 C 5.734375 0.0859375 3.503906 1.140625 1.609375 2.171875 C -0.285156 3.203125 -1.234375 3.878906 -1.234375 4.203125 C -1.234375 4.367188 -0.988281 4.453125 -0.5 4.453125 Z M -0.5 4.453125 "/></g></g></g><path fill="#fbe2ed" d="M 265.5625 176.847656 C 265.148438 162.210938 265.980469 154.171875 261.238281 150.464844 C 259.515625 149.113281 254.242188 148.472656 248.234375 148.207031 C 249.128906 144.425781 249.726562 137.777344 248.863281 126.136719 C 247.011719 100.988281 249.683594 96.035156 248.660156 93.765625 C 247.863281 92.019531 227.019531 88.195312 209.839844 86.714844 C 210.820312 81.0625 212.332031 71.132812 211.757812 66.554688 C 210.9375 59.960938 201.863281 48.820312 201.863281 48.820312 C 201.863281 48.820312 194.855469 55.828125 194.035156 67.171875 C 193.480469 74.785156 199.894531 82.199219 204.417969 86.324219 C 201.375 86.152344 198.539062 86.078125 196.101562 86.128906 C 179.402344 86.546875 157.960938 85.097656 153.636719 89.21875 C 151.273438 90.636719 150.082031 92.328125 149.410156 94.652344 C 149.144531 95.28125 149.113281 95.609375 149.113281 95.609375 C 149.101562 95.757812 149.089844 95.917969 149.070312 96.066406 C 148.570312 98.613281 148.453125 101.839844 148.078125 106.121094 C 147.257812 115.601562 151.785156 150.65625 151.785156 150.65625 C 151.785156 150.65625 142.921875 150.039062 139.417969 155.8125 C 135.914062 161.585938 138.601562 183.441406 139.21875 187.96875 C 139.835938 192.492188 138.601562 204.253906 146.429688 209.609375 C 151.007812 212.742188 224.550781 205.902344 231.152344 206.523438 C 237.746094 207.140625 253.210938 207.960938 259.183594 204.457031 C 265.148438 200.960938 265.980469 191.480469 265.5625 176.847656 Z M 265.5625 176.847656 " fill-opacity="1" fill-rule="nonzero"/><path fill="#000000" d="M 172.085938 294.5 C 164.84375 294.5 157.386719 294.308594 153.476562 293.660156 C 149.144531 292.933594 147.121094 291.847656 147.109375 290.242188 C 147.097656 289.078125 147.089844 286.34375 168.890625 282.421875 C 176.046875 281.132812 184.824219 280.496094 193.84375 280.34375 C 189.96875 271.484375 192.011719 259.277344 193.84375 248.347656 C 194.523438 244.3125 195.164062 240.488281 195.503906 236.964844 C 195.558594 236.460938 195.996094 236.101562 196.496094 236.152344 C 196.996094 236.207031 197.359375 236.644531 197.304688 237.144531 C 196.953125 240.746094 196.304688 244.589844 195.621094 248.65625 C 193.78125 259.640625 191.714844 271.921875 195.824219 280.335938 C 217.007812 280.164062 238.960938 282.582031 244.101562 285.523438 C 247.234375 287.3125 247.46875 288.953125 247.128906 290.015625 C 245.382812 295.363281 225.445312 293.980469 213.707031 292.679688 C 205.453125 291.765625 199.679688 288.984375 196.058594 284.191406 C 195.570312 283.542969 195.132812 282.871094 194.726562 282.167969 C 185.609375 282.273438 176.632812 282.878906 169.199219 284.222656 C 149.601562 287.75 148.929688 290.15625 148.910156 290.261719 C 148.921875 290.261719 149.386719 291.167969 153.765625 291.890625 C 162.53125 293.351562 190.605469 292.390625 190.894531 292.382812 C 191.40625 292.390625 191.808594 292.753906 191.832031 293.253906 C 191.851562 293.753906 191.457031 294.171875 190.957031 294.191406 C 190.308594 294.191406 181.371094 294.5 172.085938 294.5 Z M 196.835938 282.144531 C 197.050781 282.476562 197.273438 282.785156 197.507812 283.09375 C 200.820312 287.472656 206.175781 290.015625 213.910156 290.878906 C 237.597656 293.511719 244.871094 291.101562 245.402344 289.464844 C 245.542969 289.039062 245.050781 288.152344 243.199219 287.097656 C 238.832031 284.59375 217.734375 282.113281 196.835938 282.144531 Z M 196.835938 282.144531 " fill-opacity="1" fill-rule="nonzero"/><g clip-path="url(#2bcc3db5ee)"><path fill="#000000" d="M 197.144531 234.726562 C 197.09375 234.726562 197.027344 234.726562 196.976562 234.714844 C 196.484375 234.621094 196.164062 234.152344 196.25 233.660156 C 197.71875 225.863281 199.179688 222.699219 220.617188 222.679688 C 236.136719 222.660156 265.03125 222.625 269.417969 215.4375 C 269.761719 214.871094 269.609375 214.628906 269.546875 214.511719 C 267.886719 211.699219 253.476562 210.855469 233.824219 210.972656 C 221.726562 215.0625 204.3125 218.867188 181.414062 222.445312 C 143 228.453125 118.929688 220.976562 117.117188 216.460938 C 116.925781 215.980469 116.519531 214.980469 117.085938 214.125 C 118.117188 212.5625 121.355469 212.476562 136.917969 212.101562 C 146.035156 211.878906 159.804688 211.550781 179.507812 210.738281 C 202.46875 209.792969 220.148438 209.257812 233.582031 209.164062 C 244.476562 205.46875 250.8125 201.589844 252.507812 197.554688 C 256.957031 186.988281 259.171875 162.308594 253.59375 155.671875 C 252.410156 154.265625 247.53125 153.339844 240.355469 152.785156 C 231.195312 180.566406 171.296875 195.730469 163.957031 197.488281 C 150.015625 200.835938 140.507812 200.355469 134.882812 196.03125 C 131.101562 193.121094 129.183594 188.542969 129.023438 182.023438 C 128.972656 179.96875 128.746094 177.730469 128.523438 175.558594 C 127.851562 169.039062 127.152344 162.289062 130.855469 157.84375 C 133.113281 155.128906 136.726562 153.605469 141.871094 153.191406 C 142.699219 153.128906 207.753906 148.601562 239 150.910156 C 239.480469 149.144531 239.726562 147.332031 239.714844 145.480469 C 239.660156 135.691406 239.992188 127.136719 240.246094 120.269531 C 240.695312 108.574219 240.992188 100.851562 239.160156 97.675781 C 237.574219 94.929688 220.8125 91.894531 201.894531 90.402344 C 203.355469 92.53125 203.960938 94.546875 203.800781 96.613281 C 203.246094 103.738281 193.375 111.152344 171.433594 125.050781 C 158.109375 133.496094 149.058594 136.019531 143.765625 132.78125 C 137.875 129.171875 137.917969 119.480469 138.84375 109.53125 L 139.046875 107.335938 C 140.453125 91.710938 141.261719 90.199219 165.042969 88.195312 C 173.9375 87.441406 185.929688 87.578125 197.742188 88.347656 C 197.292969 87.910156 196.816406 87.472656 196.292969 87.015625 C 183.246094 75.585938 181.882812 67.277344 190.894531 54.101562 C 191.363281 53.410156 191.777344 52.75 192.140625 52.132812 C 191.671875 51.054688 191.320312 49.949219 191.105469 48.789062 C 190.402344 44.929688 191.5 42.917969 192.757812 42.3125 C 193.628906 41.894531 194.578125 42.121094 195.25 42.898438 C 196.433594 44.28125 196.6875 47.445312 194.164062 52.195312 C 195.1875 54.285156 196.613281 56.273438 198.105469 58.351562 C 201.84375 63.570312 205.71875 68.960938 204.015625 76.894531 C 203.910156 77.386719 203.429688 77.695312 202.9375 77.589844 C 202.449219 77.480469 202.140625 77.003906 202.246094 76.511719 C 203.78125 69.355469 200.148438 64.296875 196.632812 59.40625 C 195.386719 57.671875 194.121094 55.902344 193.085938 54.039062 C 192.863281 54.390625 192.640625 54.742188 192.382812 55.105469 C 183.949219 67.4375 185.183594 74.863281 197.484375 85.628906 C 198.625 86.632812 199.59375 87.578125 200.414062 88.507812 C 220.097656 89.945312 238.609375 93.085938 240.726562 96.75 C 242.816406 100.371094 242.539062 107.878906 242.058594 120.308594 C 241.792969 127.171875 241.472656 135.703125 241.527344 145.449219 C 241.535156 147.363281 241.300781 149.230469 240.855469 151.039062 C 248.320312 151.6875 253.550781 152.777344 254.988281 154.492188 C 261.410156 162.128906 258.417969 188.167969 254.179688 198.246094 C 252.558594 202.089844 247.46875 205.710938 238.832031 209.140625 C 260.460938 209.183594 269.367188 210.613281 271.125 213.582031 C 271.476562 214.179688 271.730469 215.140625 270.984375 216.375 C 266.457031 223.808594 243.632812 224.457031 220.640625 224.480469 C 199.839844 224.5 199.285156 227.472656 198.050781 233.980469 C 197.945312 234.429688 197.570312 234.726562 197.144531 234.726562 Z M 118.578125 215.128906 C 118.585938 215.128906 118.578125 215.277344 118.777344 215.789062 C 119.917969 218.609375 141.933594 226.792969 181.117188 220.65625 C 200.511719 217.621094 216.019531 214.402344 227.59375 211.027344 C 212.917969 211.230469 196.003906 211.867188 179.5625 212.539062 C 159.835938 213.347656 146.054688 213.691406 136.9375 213.914062 C 125.5 214.203125 119.195312 214.351562 118.578125 215.128906 Z M 216.273438 152.074219 C 190.574219 152.074219 158.324219 153.691406 141.996094 155 C 137.355469 155.375 134.160156 156.683594 132.230469 159.007812 C 129.015625 162.871094 129.675781 169.230469 130.3125 175.378906 C 130.539062 177.582031 130.773438 179.851562 130.824219 181.980469 C 130.972656 187.914062 132.65625 192.035156 135.96875 194.59375 C 141.058594 198.511719 150.324219 198.886719 163.523438 195.722656 C 189.113281 189.585938 230.671875 174.132812 238.425781 152.648438 C 232.25 152.242188 224.601562 152.074219 216.273438 152.074219 Z M 179.347656 89.464844 C 174.320312 89.464844 169.507812 89.625 165.171875 89.996094 C 142.222656 91.933594 142.144531 92.820312 140.824219 107.496094 L 140.625 109.703125 C 139.792969 118.617188 139.632812 128.140625 144.691406 131.238281 C 149.269531 134.039062 157.941406 131.441406 170.445312 123.515625 C 191.414062 110.222656 201.492188 102.789062 201.980469 96.472656 C 202.140625 94.480469 201.351562 92.480469 199.476562 90.21875 C 192.777344 89.742188 185.878906 89.464844 179.347656 89.464844 Z M 193.621094 43.929688 C 193.578125 43.929688 193.546875 43.941406 193.523438 43.953125 C 193.003906 44.195312 192.351562 45.644531 192.875 48.457031 C 192.96875 48.957031 193.085938 49.457031 193.246094 49.949219 C 194.769531 46.476562 194.3125 44.601562 193.863281 44.078125 C 193.746094 43.960938 193.671875 43.929688 193.621094 43.929688 Z M 193.621094 43.929688 " fill-opacity="1" fill-rule="nonzero"/></g></svg>